<svg width="96" height="96" viewBox="0 0 40 46" fill="none" xmlns="http://www.w3.org/2000/svg">
  <defs>
    <linearGradient id="iconGradient" x1="0.398438" y1="23.1221" x2="39.2991" y2="23.1221" gradientUnits="userSpaceOnUse">
      <stop stop-color="#F3904F" />
      <stop offset="1" stop-color="#3B4371" />
    </linearGradient>
  </defs>
  <path
    d="M28.6777 25.7458C28.7429 25.6606 28.8085 25.5754 28.8732 25.4903C35.1592 24.7588 39.3825 23.5757 39.217 22.3971C39.092 21.5077 36.4942 20.802 32.4678 20.3991C38.3238 11.4174 40.8253 3.58554 38.134 1.16906C35.6362 -1.07357 29.3377 1.95308 22.277 8.24499C21.8749 5.09136 21.275 3.12358 20.5471 3.01328C19.4745 2.85093 18.3982 6.7572 17.6885 12.693C17.2807 13.1203 16.8725 13.5566 16.4645 14.0014C8.37947 7.05537 1.77447 3.05395 0.585339 4.66188C-0.584526 6.24384 3.83861 12.7796 11.0197 20.4984C10.9546 20.5836 10.889 20.6688 10.8244 20.7539C4.53829 21.4852 0.315067 22.6684 0.480594 23.8471C0.605564 24.7364 3.20332 25.4422 7.22973 25.845C1.37369 34.8267 -1.12773 42.6586 1.5636 45.0751C4.0614 47.3177 10.3598 44.2911 17.4205 37.9991C17.8227 41.1527 18.4225 43.1206 19.1504 43.2309C20.2231 43.3933 21.2994 39.4869 22.0091 33.5511C22.4169 33.1239 22.825 32.6875 23.2331 32.2427C31.3181 39.1889 37.9231 43.1903 39.1122 41.5823C40.2821 40.0004 35.859 33.4646 28.6779 25.7459L28.6777 25.7458ZM28.1955 25.23C26.7105 23.6499 25.114 22.0244 23.4299 20.3851C26.4816 20.4323 29.2328 20.615 31.4523 20.899C30.4654 22.3211 29.3763 23.7726 28.1956 25.23H28.1955ZM27.5441 25.4359C26.0257 25.5813 24.3817 25.6936 22.6518 25.7656C22.6884 25.0421 22.7203 24.3073 22.7462 23.5609C22.7833 22.4931 22.8075 21.4436 22.8199 20.4174C24.5117 22.1243 26.0964 23.8113 27.5442 25.436L27.5441 25.4359ZM37.0645 22.8591C36.9937 23.8258 33.7958 24.7217 29.0336 25.2779C30.126 23.8318 31.1448 22.3951 32.0824 20.9842C35.2069 21.4325 37.1205 22.0941 37.0645 22.859V22.8591ZM36.854 4.38968C38.9326 6.7173 36.7489 13.1003 31.8364 20.3391C29.3338 20.1162 26.3341 20.0056 23.0653 20.0314C22.9855 19.9543 22.9054 19.8773 22.8253 19.8C22.8537 16.0145 22.7178 12.5783 22.4517 9.81446C29.0115 4.42891 34.7763 2.06294 36.854 4.38956V4.38968ZM20.0884 5.63842C20.664 5.593 21.1787 6.79754 21.5823 8.87163C20.3836 9.96852 19.166 11.1573 17.9442 12.4266C18.4825 8.35032 19.2584 5.70385 20.0886 5.63831L20.0884 5.63842ZM17.7479 14.0754C19.1206 12.7157 20.4885 11.4634 21.8275 10.3336C22.1748 12.7267 22.404 15.8837 22.4662 19.455C20.8324 17.8908 19.2181 16.4104 17.6508 15.0326C17.6817 14.7067 17.7142 14.3888 17.7479 14.0754ZM22.4785 20.3752C22.4867 21.2658 22.4848 22.1788 22.4718 23.1097C22.4592 24.0154 22.4366 24.9056 22.4049 25.7762C21.5664 25.809 20.7088 25.8325 19.8366 25.8457C18.9399 25.8592 18.0605 25.8612 17.2027 25.8526C17.1984 25.091 17.2007 24.3151 17.2118 23.5248C17.2263 22.4836 17.2546 21.464 17.2942 20.4701C18.2515 20.4291 19.2335 20.3997 20.2364 20.3845C20.9975 20.3732 21.7448 20.3707 22.4784 20.3752H22.4785ZM22.4418 20.0375C21.4572 20.0503 20.4503 20.0755 19.426 20.1139C18.7079 20.1406 18.0009 20.1738 17.3047 20.2117C17.3756 18.5261 17.4807 16.923 17.6142 15.4371C19.1834 16.8562 20.8055 18.3992 22.4418 20.0375ZM17.509 14.3126C17.4904 14.4942 17.4716 14.6752 17.4537 14.86C17.3665 14.7836 17.2792 14.707 17.1923 14.6313C17.2979 14.5246 17.4035 14.418 17.509 14.3126ZM16.9687 14.858C17.1175 14.9905 17.2667 15.1243 17.4166 15.2591C17.2711 16.8219 17.1502 18.4866 17.0589 20.2258C15.2597 20.3275 13.541 20.4642 11.9403 20.6304C11.9196 20.6073 11.8989 20.5842 11.8782 20.5613C12.8122 19.4094 13.8026 18.2543 14.8448 17.1072C15.5506 16.3305 16.2596 15.5804 16.9686 14.858H16.9687ZM17.0454 20.4809C17.0088 21.2037 16.977 21.9379 16.9511 22.6834C16.9138 23.7572 16.8897 24.8124 16.8773 25.8442C16.8107 25.7776 16.7442 25.7113 16.6775 25.6443C15.0535 24.0115 13.5269 22.3957 12.1226 20.8337C13.6429 20.6798 15.2992 20.5601 17.0454 20.481V20.4809ZM3.11614 6.30827C4.37053 5.17281 9.73594 8.51598 16.2566 14.2287C15.3297 15.2462 14.404 16.3076 13.4861 17.4096C12.7632 18.2775 12.0656 19.1468 11.3928 20.0141C5.33963 13.1517 1.81258 7.48839 3.11614 6.30827ZM11.5083 21.021C12.9853 22.5922 14.5722 24.2082 16.2461 25.8381C13.2245 25.7791 10.5124 25.5867 8.34104 25.2946C9.29908 23.8933 10.3584 22.4612 11.5083 21.021ZM3.00895 23.371C3.07772 22.4316 6.09797 21.5586 10.6388 20.9996C9.57233 22.4128 8.5764 23.8167 7.65775 25.1963C4.73171 24.7494 2.95498 24.1083 3.00906 23.371H3.00895ZM3.19832 41.4283C1.16112 39.147 3.21823 32.9703 7.92568 25.9104C10.4154 26.1295 13.3909 26.2384 16.6321 26.2127C16.7117 26.2899 16.792 26.3669 16.872 26.444C16.8441 30.1711 16.9751 33.5612 17.2331 36.3028C10.8263 41.476 5.23712 43.7115 3.19821 41.4283H3.19832ZM19.5955 40.9962C18.9906 41.0439 18.4531 39.7118 18.0409 37.44C19.2776 36.3116 20.5347 35.0857 21.7962 33.7733C21.2565 38.0965 20.4549 40.9283 19.5955 40.9962ZM21.9884 32.054C20.574 33.4388 19.1666 34.7081 17.7927 35.8458C17.4685 33.4192 17.2602 30.2846 17.2119 26.7706C18.8594 28.3485 20.487 29.8411 22.0669 31.2295C22.0417 31.5086 22.0156 31.7835 21.9884 32.054ZM17.241 26.2069C18.2303 26.194 19.2421 26.1689 20.2714 26.1304C20.9903 26.1034 21.698 26.0704 22.3949 26.0323C22.33 27.7116 22.2319 29.3151 22.1048 30.8049C20.5275 29.3913 18.8929 27.8489 17.2409 26.2069H17.241ZM22.1968 31.8498C22.2125 31.6949 22.2285 31.5415 22.2437 31.3843C22.3185 31.4499 22.3935 31.5154 22.468 31.5806C22.3776 31.6707 22.2871 31.7606 22.1968 31.8499V31.8498ZM22.7074 31.3409C22.5663 31.2162 22.4248 31.0905 22.2828 30.9638C22.4274 29.4071 22.5476 27.7498 22.6384 26.0185C24.419 25.9178 26.1202 25.7828 27.7068 25.6189C27.7365 25.6523 27.7666 25.686 27.7961 25.7194C26.9739 26.7177 26.1102 27.7174 25.2074 28.711C24.3768 29.6252 23.5416 30.5024 22.7074 31.341V31.3409ZM36.2074 39.5776C34.9781 40.6904 29.8008 37.5018 23.4572 31.9976C24.3787 30.9854 25.2989 29.9302 26.2113 28.8346C26.9243 27.9787 27.6127 27.1214 28.2769 26.2661C34.1178 32.95 37.486 38.4201 36.2075 39.5776H36.2074Z"
    fill="url(#iconGradient)"
  />
</svg>
